# xmcd CD database file
#
# Track frame offsets:
#	182
#	21940
#	44410
#	64202
#	90197
#	113852
#	136547
#	165482
#	192695
#	212537
#
# Disc length: 3233 seconds
#
# Revision: 0
# Processed by: cddbd v1.5.1PL2 Copyright (c) Steve Scherf et al.
# Submitted via: CDex 1.50
#
DISCID=810c9f0a
DTITLE=Compilation - Salsa Viva CD3 Mucho Mejor
DYEAR=1991
DGENRE=Salsa
TTITLE0=Johnny Pacheco and Pete Conde Rodriguez - Amor En la Arena
TTITLE1=Johnny Pacheco and Pete Conde Rodriguez - Como Canbian Los Tiempos
TTITLE2=Johnny Pacheco and Pete Conde Rodriguez - Dile
TTITLE3=Celia Cruz, Ray Berretto and Adalberto Santiago - Nadie Se Salva De La Rumba
TTITLE4=Celia Cruz, Ray Berretto and Adalberto Santiago - Ya no Pueder Ser
TTITLE5=Ruben Blades - Mucho Mejor
TTITLE6=Ruben Blades - Te Estan Buscando
TTITLE7=Ruben Blades - Ligia Elenq
TTITLE8=Eddie Palmieri - Le Verdad
TTITLE9=Eddie Palmieri - Lisa
EXTD=YEAR: 1991
EXTT0=
EXTT1=
EXTT2=
EXTT3=
EXTT4=
EXTT5=
EXTT6=
EXTT7=
EXTT8=
EXTT9=
PLAYORDER=
